<mxfile host="65bd71144e">
    <diagram name="Page-1" id="wWm3oFifaIzlCJxBvwEI">
        <mxGraphModel dx="893" dy="526" grid="1" gridSize="10" guides="1" tooltips="1" connect="1" arrows="1" fold="1" page="1" pageScale="1" pageWidth="827" pageHeight="1169" math="0" shadow="1">
            <root>
                <mxCell id="0"/>
                <mxCell id="1" parent="0"/>
                <mxCell id="loMx2dHr52xI0PEySTr8-5" value="" style="edgeStyle=orthogonalEdgeStyle;rounded=0;orthogonalLoop=1;jettySize=auto;html=1;textShadow=0;strokeWidth=3;" parent="1" target="loMx2dHr52xI0PEySTr8-4" edge="1">
                    <mxGeometry relative="1" as="geometry">
                        <mxPoint x="130" y="140" as="sourcePoint"/>
                    </mxGeometry>
                </mxCell>
                <mxCell id="loMx2dHr52xI0PEySTr8-7" value="" style="edgeStyle=orthogonalEdgeStyle;rounded=0;orthogonalLoop=1;jettySize=auto;html=1;textShadow=0;strokeWidth=3;" parent="1" source="loMx2dHr52xI0PEySTr8-4" edge="1">
                    <mxGeometry relative="1" as="geometry">
                        <mxPoint x="130" y="289.9999999999999" as="targetPoint"/>
                    </mxGeometry>
                </mxCell>
                <mxCell id="loMx2dHr52xI0PEySTr8-4" value="Declare:&lt;br&gt;&amp;nbsp;char membership[5]" style="whiteSpace=wrap;html=1;strokeWidth=3;fillColor=#e51400;fontColor=#ffffff;strokeColor=#B20000;textShadow=0;shadow=1;" parent="1" vertex="1">
                    <mxGeometry x="40" y="190" width="180" height="60" as="geometry"/>
                </mxCell>
                <mxCell id="7" value="setMembershipDiscount&lt;br&gt;(int driverCount, string driverName[])" style="strokeWidth=3;html=1;shape=mxgraph.flowchart.terminator;whiteSpace=wrap;fillColor=#d80073;fontColor=#ffffff;strokeColor=#A50040;" parent="1" vertex="1">
                    <mxGeometry x="46.660000000000025" y="40" width="166.67" height="100" as="geometry"/>
                </mxCell>
                <mxCell id="9" value="&lt;font style=&quot;color: rgb(255, 255, 255);&quot;&gt;Prompt:&lt;/font&gt;&lt;div&gt;&lt;font style=&quot;color: rgb(255, 255, 255);&quot;&gt;&quot;Does &quot;, driverName[i], &lt;br&gt;&quot; have a membership? (Y/N): &quot;&lt;/font&gt;&lt;/div&gt;" style="shape=parallelogram;perimeter=parallelogramPerimeter;whiteSpace=wrap;html=1;fixedSize=1;fillColor=#008a00;strokeColor=#005700;fontColor=#ffffff;strokeWidth=3;textShadow=0;shadow=1;" vertex="1" parent="1">
                    <mxGeometry x="220" y="315" width="260" height="60" as="geometry"/>
                </mxCell>
                <mxCell id="10" value="i = 0,&lt;br&gt;i &amp;lt; driverCount,&lt;br&gt;i++" style="rhombus;whiteSpace=wrap;html=1;fillColor=#6a00ff;fontColor=#ffffff;strokeColor=#3700CC;strokeWidth=3;" vertex="1" parent="1">
                    <mxGeometry x="75" y="290" width="110" height="110" as="geometry"/>
                </mxCell>
                <mxCell id="12" value="&lt;font style=&quot;color: rgb(255, 255, 255);&quot;&gt;membership[i] =&lt;br&gt;getValidCharacterInput()&lt;/font&gt;" style="whiteSpace=wrap;html=1;fillColor=#fa6800;fontColor=#000000;strokeColor=#C73500;strokeWidth=3;" vertex="1" parent="1">
                    <mxGeometry x="270" y="420" width="160" height="60" as="geometry"/>
                </mxCell>
                <mxCell id="13" value="membership[i]&lt;br&gt;==&lt;br&gt;&#39;Y&#39;" style="rhombus;whiteSpace=wrap;html=1;fillColor=#1ba1e2;fontColor=#ffffff;strokeColor=#006EAF;strokeWidth=3;" vertex="1" parent="1">
                    <mxGeometry x="290" y="525" width="120" height="120" as="geometry"/>
                </mxCell>
                <mxCell id="15" value="&lt;font style=&quot;color: rgb(255, 255, 255);&quot;&gt;counter.membership++&lt;/font&gt;" style="whiteSpace=wrap;html=1;fillColor=#fa6800;fontColor=#000000;strokeColor=#C73500;strokeWidth=3;" vertex="1" parent="1">
                    <mxGeometry x="460" y="555" width="160" height="60" as="geometry"/>
                </mxCell>
                <mxCell id="17" value="counter.membership &amp;gt; 0" style="rhombus;whiteSpace=wrap;html=1;fillColor=#1ba1e2;fontColor=#ffffff;strokeColor=#006EAF;strokeWidth=3;" vertex="1" parent="1">
                    <mxGeometry x="55" y="720" width="150" height="150" as="geometry"/>
                </mxCell>
                <mxCell id="18" value="" style="rounded=0;orthogonalLoop=1;jettySize=auto;html=1;textShadow=0;strokeWidth=3;entryX=0.5;entryY=0;entryDx=0;entryDy=0;" edge="1" parent="1" target="12">
                    <mxGeometry relative="1" as="geometry">
                        <mxPoint x="349.83000000000004" y="375" as="sourcePoint"/>
                        <mxPoint x="349.83000000000004" y="414.9999999999999" as="targetPoint"/>
                        <Array as="points">
                            <mxPoint x="350" y="400"/>
                        </Array>
                    </mxGeometry>
                </mxCell>
                <mxCell id="19" value="" style="rounded=0;orthogonalLoop=1;jettySize=auto;html=1;textShadow=0;strokeWidth=3;entryX=0.5;entryY=0;entryDx=0;entryDy=0;" edge="1" parent="1">
                    <mxGeometry relative="1" as="geometry">
                        <mxPoint x="349.76000000000005" y="480" as="sourcePoint"/>
                        <mxPoint x="349.93" y="525" as="targetPoint"/>
                        <Array as="points">
                            <mxPoint x="349.93" y="505"/>
                        </Array>
                    </mxGeometry>
                </mxCell>
                <mxCell id="21" value="True" style="edgeStyle=none;orthogonalLoop=1;jettySize=auto;html=1;strokeWidth=3;entryX=0;entryY=0.5;entryDx=0;entryDy=0;" edge="1" parent="1" target="15">
                    <mxGeometry x="-0.2" width="100" relative="1" as="geometry">
                        <mxPoint x="410" y="584.88" as="sourcePoint"/>
                        <mxPoint x="510" y="584.88" as="targetPoint"/>
                        <Array as="points"/>
                        <mxPoint as="offset"/>
                    </mxGeometry>
                </mxCell>
                <mxCell id="23" value="" style="edgeStyle=none;orthogonalLoop=1;jettySize=auto;html=1;exitX=0.5;exitY=1;exitDx=0;exitDy=0;strokeWidth=3;rounded=0;curved=0;endArrow=classic;endFill=1;" edge="1" parent="1" source="15">
                    <mxGeometry width="100" relative="1" as="geometry">
                        <mxPoint x="420" y="650" as="sourcePoint"/>
                        <mxPoint x="350" y="720" as="targetPoint"/>
                        <Array as="points">
                            <mxPoint x="540" y="720"/>
                        </Array>
                    </mxGeometry>
                </mxCell>
                <mxCell id="25" value="False" style="edgeStyle=none;orthogonalLoop=1;jettySize=auto;html=1;strokeWidth=3;exitX=0.5;exitY=1;exitDx=0;exitDy=0;entryX=1;entryY=1;entryDx=0;entryDy=0;rounded=0;curved=0;" edge="1" parent="1" source="13" target="10">
                    <mxGeometry x="-0.9184" width="100" relative="1" as="geometry">
                        <mxPoint x="420" y="594.88" as="sourcePoint"/>
                        <mxPoint x="350" y="710" as="targetPoint"/>
                        <Array as="points">
                            <mxPoint x="350" y="720"/>
                            <mxPoint x="160" y="720"/>
                        </Array>
                        <mxPoint as="offset"/>
                    </mxGeometry>
                </mxCell>
                <mxCell id="26" value="False" style="edgeStyle=none;orthogonalLoop=1;jettySize=auto;html=1;exitX=0.5;exitY=1;exitDx=0;exitDy=0;entryX=0.5;entryY=0;entryDx=0;entryDy=0;strokeWidth=3;" edge="1" parent="1" source="10" target="17">
                    <mxGeometry x="-0.8125" width="100" relative="1" as="geometry">
                        <mxPoint x="50" y="510" as="sourcePoint"/>
                        <mxPoint x="150" y="510" as="targetPoint"/>
                        <Array as="points"/>
                        <mxPoint as="offset"/>
                    </mxGeometry>
                </mxCell>
                <mxCell id="27" value="True" style="edgeStyle=none;orthogonalLoop=1;jettySize=auto;html=1;strokeWidth=3;exitX=1;exitY=0.5;exitDx=0;exitDy=0;entryX=0;entryY=0.5;entryDx=0;entryDy=0;" edge="1" parent="1" source="10" target="9">
                    <mxGeometry x="-0.3333" width="100" relative="1" as="geometry">
                        <mxPoint x="140" y="410" as="sourcePoint"/>
                        <mxPoint x="240" y="410" as="targetPoint"/>
                        <Array as="points"/>
                        <mxPoint as="offset"/>
                    </mxGeometry>
                </mxCell>
                <mxCell id="28" value="True" style="edgeStyle=none;orthogonalLoop=1;jettySize=auto;html=1;strokeWidth=3;entryX=0;entryY=0.5;entryDx=0;entryDy=0;entryPerimeter=0;" edge="1" parent="1" target="29">
                    <mxGeometry x="-0.2" width="100" relative="1" as="geometry">
                        <mxPoint x="205" y="794.66" as="sourcePoint"/>
                        <mxPoint x="255" y="794.78" as="targetPoint"/>
                        <Array as="points"/>
                        <mxPoint as="offset"/>
                    </mxGeometry>
                </mxCell>
                <mxCell id="29" value="return&lt;br&gt;MEMBERSHIPDISCOUNT" style="strokeWidth=3;html=1;shape=mxgraph.flowchart.terminator;whiteSpace=wrap;fillColor=#d80073;fontColor=#ffffff;strokeColor=#A50040;" vertex="1" parent="1">
                    <mxGeometry x="260" y="745" width="166.67" height="100" as="geometry"/>
                </mxCell>
                <mxCell id="30" value="False" style="edgeStyle=none;orthogonalLoop=1;jettySize=auto;html=1;strokeWidth=3;" edge="1" parent="1">
                    <mxGeometry x="-0.2" width="100" relative="1" as="geometry">
                        <mxPoint x="130" y="870" as="sourcePoint"/>
                        <mxPoint x="130" y="920" as="targetPoint"/>
                        <Array as="points"/>
                        <mxPoint as="offset"/>
                    </mxGeometry>
                </mxCell>
                <mxCell id="31" value="return&lt;br&gt;0" style="strokeWidth=3;html=1;shape=mxgraph.flowchart.terminator;whiteSpace=wrap;fillColor=#d80073;fontColor=#ffffff;strokeColor=#A50040;" vertex="1" parent="1">
                    <mxGeometry x="46.66" y="920" width="166.67" height="100" as="geometry"/>
                </mxCell>
            </root>
        </mxGraphModel>
    </diagram>
</mxfile>